<?xml version="1.0" encoding="UTF-8" standalone="no"?>
<!-- Created with Inkscape (http://www.inkscape.org/) -->

<svg
   width="401.99875"
   height="334.79333"
   viewBox="0 0 106.36217 88.580737"
   version="1.1"
   id="svg1"
   xml:space="preserve"
   sodipodi:docname="Tachometer.svg"
   inkscape:version="1.4 (86a8ad7, 2024-10-11)"
   xmlns:inkscape="http://www.inkscape.org/namespaces/inkscape"
   xmlns:sodipodi="http://sodipodi.sourceforge.net/DTD/sodipodi-0.dtd"
   xmlns:xlink="http://www.w3.org/1999/xlink"
   xmlns="http://www.w3.org/2000/svg"
   xmlns:svg="http://www.w3.org/2000/svg"><sodipodi:namedview
     id="namedview1"
     pagecolor="#505050"
     bordercolor="#ffffff"
     borderopacity="1"
     inkscape:showpageshadow="0"
     inkscape:pageopacity="0"
     inkscape:pagecheckerboard="1"
     inkscape:deskcolor="#505050"
     inkscape:zoom="2.3929747"
     inkscape:cx="169.45436"
     inkscape:cy="239.65987"
     inkscape:window-width="2560"
     inkscape:window-height="1351"
     inkscape:window-x="-9"
     inkscape:window-y="-9"
     inkscape:window-maximized="1"
     inkscape:current-layer="svg1" /><defs
     id="defs1"><linearGradient
       id="linearGradient808"><stop
         style="stop-color:#fcfcff;stop-opacity:1;"
         offset="0"
         id="stop807" /><stop
         style="stop-color:#323233;stop-opacity:0;"
         offset="1"
         id="stop808" /></linearGradient><linearGradient
       id="linearGradient739"><stop
         style="stop-color:#fafaff;stop-opacity:1;"
         offset="0"
         id="stop739" /><stop
         style="stop-color:#323233;stop-opacity:0;"
         offset="1"
         id="stop740" /></linearGradient><linearGradient
       id="linearGradient1284"><stop
         style="stop-color:#f9f9ff;stop-opacity:1;"
         offset="0"
         id="stop1283" /><stop
         style="stop-color:#f6f6ff;stop-opacity:0;"
         offset="1"
         id="stop1284" /></linearGradient><linearGradient
       id="linearGradient1281"><stop
         style="stop-color:#f4f4ff;stop-opacity:1;"
         offset="0"
         id="stop1281" /><stop
         style="stop-color:#f8f8ff;stop-opacity:0;"
         offset="1"
         id="stop1282" /></linearGradient><linearGradient
       xlink:href="#linearGradient1284"
       id="linearGradient678"
       gradientUnits="userSpaceOnUse"
       gradientTransform="translate(-1347.8503,-1661.5379)"
       x1="1368.1538"
       y1="1737.2687"
       x2="1357.4413"
       y2="1743.4532" /><linearGradient
       xlink:href="#linearGradient1281"
       id="linearGradient679"
       gradientUnits="userSpaceOnUse"
       gradientTransform="matrix(-1,0,0,1,1454.2125,-1661.5379)"
       x1="1368.1538"
       y1="1737.2687"
       x2="1357.4413"
       y2="1743.4532" /><linearGradient
       xlink:href="#linearGradient739"
       id="linearGradient680"
       gradientUnits="userSpaceOnUse"
       x1="1204.2527"
       y1="665.83398"
       x2="1202.5859"
       y2="665.83398"
       gradientTransform="translate(-1112.1277,-581.79784)" /><linearGradient
       xlink:href="#linearGradient808"
       id="linearGradient681"
       gradientUnits="userSpaceOnUse"
       x1="1204.2263"
       y1="665.83398"
       x2="1202.5859"
       y2="665.83398"
       gradientTransform="matrix(-1,0,0,1,1218.4894,-581.79781)" /></defs><path
     d="m 48.65337,6.66816 c -9.5385,0.8773 -18.6173,4.5044 -26.1343,10.4413 -0.4596,0.3257 -0.9135,0.6592 -1.3617,1.0004 -3.8336,3.2859 -7.1417,7.1393 -9.8092,11.4262 -9.8531,15.671 -10.1342,35.5313 -0.7287,51.4749 l 2.7456,-1.5849 16.245,-9.3793 c 1.5011,-0.8667 3.2039,-1.3229 4.9372,-1.3229 h 37.267 c 1.7332,-2e-4 3.436,0.4559 4.9371,1.3224 l 16.2455,9.3792 2.7596,1.5932 c 9.5584,-16.1564 9.1503,-36.3306 -1.0537,-52.0872 -2.6218,-4.0511 -5.822,-7.6969 -9.4992,-10.8216 -0.4493,-0.3421 -0.9045,-0.6765 -1.3653,-1.003 -7.4474,-5.8838 -16.43,-9.5012 -25.8764,-10.4211 -4.5801,-0.01 -6.6276,-0.012 -9.3085,-0.018 z"
     style="font-variation-settings:'wdth' 87, 'wght' 400;display:inline;fill:#141414;fill-opacity:1;stroke:none;stroke-width:0.529167;stroke-linecap:round;stroke-miterlimit:5;stroke-dasharray:none;stroke-opacity:1;paint-order:stroke fill markers"
     id="path2"
     inkscape:label="Use this to hide what's behind" /><g
     id="g2"
     inkscape:label="OuterRim + Bottom Quarter"
     style="opacity:1"><path
       d="M 11.6865,28.8783 C 7.6701,34.1142 5.2891,38.6084 5.5277,41.5752 3.7279,47.5943 3.0814,53.9003 3.6292,60.1607 c 0.041,0.4983 0.098,0.9945 0.1539,1.4903 h -5e-4 c 0.8763,7.432 3.4191,14.578 7.4471,20.9006 l 1.1157,-0.7111 0.8925,-0.5685 0.8929,-0.5689 C 6.8531,69.2793 4.9428,55.2413 8.9027,42.2879 9.955,39.232 8.3399,34.9155 11.6865,28.8783 Z M 7.2103,41.8021 c 0.057,0 0.1158,0 0.1742,0.022 h 5e-4 5e-4 c 0.1668,0.051 0.2809,0.1804 0.3354,0.3333 0.037,0.1031 0.051,0.2153 0.018,0.3282 -0.4123,1.4044 -0.7579,2.8208 -1.0367,4.2452 -0.3123,1.5959 -0.5411,3.2019 -0.6872,4.8111 -0.1461,1.609 -0.2099,3.2216 -0.1913,4.8312 0.019,1.6096 0.1193,3.2167 0.3013,4.8142 0.182,1.5973 0.4455,3.1852 0.7891,4.7578 0.344,1.5726 0.769,3.1294 1.2733,4.6643 0.5044,1.5351 1.0885,3.0489 1.7519,4.5336 0.6633,1.4848 1.4058,2.9406 2.2267,4.3625 l -0.9162,0.5297 C 10.4105,78.5816 9.651,77.0925 8.9729,75.5745 8.2947,74.0565 7.6975,72.5096 7.1818,70.9402 6.6662,69.3708 6.2323,67.7792 5.8806,66.1715 5.5293,64.5637 5.26,62.9403 5.0739,61.3072 4.8878,59.6739 4.7852,58.0311 4.7659,56.3855 c -0.019,-1.6456 0.045,-3.2942 0.1949,-4.9392 0.1494,-1.6452 0.3834,-3.2864 0.7028,-4.9181 0.2856,-1.4601 0.64,-2.9122 1.0629,-4.3517 0.014,-0.046 0.041,-0.083 0.065,-0.1219 0.092,-0.1482 0.2481,-0.2437 0.4191,-0.2522 z"
       style="font-variation-settings:'wdth' 87, 'wght' 400;display:inline;fill:#323233;fill-opacity:1;stroke:#b3b3b3;stroke-width:0;stroke-miterlimit:5;paint-order:stroke fill markers"
       id="path8" /><path
       d="m 94.6758,28.8783 c 3.3466,6.0372 1.7315,10.3537 2.7838,13.4096 3.9599,12.9534 2.0496,26.9914 -5.2281,38.4152 l 0.8924,0.5689 0.893,0.5685 1.1157,0.7111 c 4.028,-6.3226 6.5708,-13.4686 7.4471,-20.9006 h -5e-4 c 0.056,-0.4958 0.1129,-0.992 0.1535,-1.4903 0.5477,-6.2603 -0.098,-12.5664 -1.8981,-18.5855 0.2386,-2.9668 -2.1424,-7.461 -6.1588,-12.6969 z m 4.4762,12.9238 c 0.171,0.01 0.3274,0.104 0.4191,0.2522 0.024,0.039 0.051,0.076 0.065,0.1219 0.423,1.4395 0.7768,2.8916 1.0625,4.3517 0.3193,1.6317 0.5539,3.2729 0.7033,4.9181 0.1493,1.645 0.2138,3.2936 0.1948,4.9392 -0.019,1.6456 -0.1219,3.2884 -0.308,4.9217 -0.1861,1.6331 -0.4554,3.2565 -0.8067,4.8643 -0.3516,1.6077 -0.7856,3.1993 -1.3012,4.7687 -0.5157,1.5694 -1.1134,3.1163 -1.7916,4.6343 -0.6781,1.518 -1.4371,3.0071 -2.2763,4.4607 l -0.9168,-0.5297 c 0.821,-1.4219 1.5639,-2.8777 2.2273,-4.3625 0.6633,-1.4847 1.2474,-2.9985 1.7518,-4.5336 0.5043,-1.5349 0.9289,-3.0917 1.2728,-4.6643 0.3436,-1.5726 0.6071,-3.1605 0.7891,-4.7578 0.182,-1.5975 0.283,-3.2046 0.3018,-4.8142 0.019,-1.6096 -0.045,-3.2222 -0.1912,-4.8312 -0.1462,-1.6092 -0.375,-3.2147 -0.6873,-4.8106 -0.2788,-1.4244 -0.6243,-2.8413 -1.0366,-4.2457 -0.033,-0.113 -0.019,-0.225 0.018,-0.3282 0.055,-0.1528 0.1688,-0.2822 0.3354,-0.3333 h 5e-4 6e-4 c 0.058,-0.018 0.1171,-0.024 0.1741,-0.022 z"
       style="font-variation-settings:'wdth' 87, 'wght' 400;display:inline;fill:#323233;fill-opacity:1;stroke:#b3b3b3;stroke-width:0;stroke-miterlimit:5;paint-order:stroke fill markers"
       id="path23" /><path
       d="m 45.1481,4.4075 -14.4705,5.6327 0.431,0.771 c -2.6714,1.0909 -5.9318,3.491 -9.3989,6.8384 5.6195,-4.0084 10.0914,-2.8927 13.0085,-4.284 v -5e-4 c 11.7761,-5.1204 25.1498,-5.1204 36.9259,0 v 5e-4 c 2.9171,1.3913 7.389,0.2756 13.0085,4.284 -3.3818,-3.265 -6.5692,-5.6335 -9.203,-6.7603 l 0.4893,-0.033 c 0,0 -1.819,-3.6713 -2.0174,-3.7703 -0.1984,-0.099 -12.4023,-2.249 -12.7,-2.249 -0.2977,0 -16.0734,-0.4299 -16.0734,-0.4299 z m 8.0331,3.0008 c 1.6437,0 3.2875,0.084 4.9247,0.2512 0.1142,0.012 0.2275,0.031 0.3416,0.044 1.5221,0.1666 3.0386,0.3977 4.5434,0.709 1.6177,0.3347 3.2225,0.7527 4.8075,1.2547 0.8944,0.2832 1.7795,0.6034 2.6603,0.94 0.4379,0.1674 0.8753,0.3362 1.3094,0.5168 0.077,0.032 0.156,0.059 0.2331,0.092 0.2693,0.1136 0.392,0.4255 0.2754,0.6935 v 5e-4 c -0.1165,0.268 -0.4283,0.39 -0.6976,0.2764 -0.042,-0.018 -0.085,-0.033 -0.1266,-0.05 -1.3078,-0.547 -2.6328,-1.0353 -3.9734,-1.4598 -1.5503,-0.491 -3.1203,-0.9 -4.7026,-1.2274 C 61.1942,9.1219 59.5993,8.8755 57.9979,8.7118 56.3965,8.5484 54.7889,8.4669 53.1812,8.4669 c -1.6078,0 -3.2159,0.081 -4.8173,0.2449 -1.6014,0.1637 -3.1963,0.4101 -4.7785,0.7374 -1.5823,0.3274 -3.1518,0.7364 -4.7021,1.2274 -1.3405,0.4245 -2.6661,0.9128 -3.9739,1.4598 -0.042,0.018 -0.085,0.032 -0.1271,0.05 -0.2691,0.1135 -0.58,-0.01 -0.6966,-0.2759 l -5e-4,-5e-4 v -5e-4 l -0.01,-0.016 c -0.031,-0.079 -0.035,-0.1611 -0.027,-0.2413 0.017,-0.186 0.1252,-0.3584 0.3095,-0.4361 0.077,-0.033 0.1562,-0.06 0.2336,-0.092 1.3071,-0.5436 2.6307,-1.0328 3.9698,-1.4568 1.585,-0.502 3.1892,-0.92 4.8069,-1.2547 1.6176,-0.3346 3.2483,-0.5855 4.8855,-0.7529 1.2222,-0.1248 2.4484,-0.1879 3.6752,-0.2196 0.4166,-0.011 0.8329,-0.032 1.2496,-0.032 z"
       style="font-variation-settings:'wdth' 87, 'wght' 400;fill:#323233;fill-opacity:1;stroke-width:0.264583;stroke-linecap:round;stroke-miterlimit:5;paint-order:stroke fill markers"
       id="path25" /><path
       d="M 53.1808,2.6446 A 53.181248,53.181248 0 0 0 18.7602,15.2862 53.181248,53.181248 0 0 0 7.596,83.2159 l 3.175,-1.9079 a 49.477081,49.477081 0 0 1 10.387,-63.1982 49.477081,49.477081 0 0 1 64.0462,0 49.477081,49.477081 0 0 1 10.3869,63.1982 l 3.175,1.9079 A 53.181248,53.181248 0 0 0 87.602,15.2862 53.181248,53.181248 0 0 0 53.1808,2.6446 Z"
       style="font-variation-settings:'wdth' 87, 'wght' 400;fill:#323233;fill-opacity:1;stroke-width:1.05833;stroke-linecap:square;stroke-miterlimit:5"
       id="path26" /><path
       d="m 53.1812,2.64463 c -1.1757,0 -2.3513,0.0387 -3.5249,0.11627 -0.729,0.0482 -1.9087,0.15555 -2.6344,0.23978 -1.1695,0.13573 -2.3358,0.31015 -3.496,0.52348 -1.1627,0.2138 -2.3193,0.46637 -3.4685,0.75809 -0.7081,0.17977 -1.8488,0.49986 -2.5471,0.71469 -1.1371,0.34981 -2.2649,0.739 -3.3812,1.16685 -1.1217,0.42991 -2.232,0.89899 -3.3285,1.40767 -0.6627,0.30746 -1.7249,0.83283 -2.3714,1.17305 -1.0766,0.56655 -2.1377,1.17249 -3.1817,1.81798 -1.0528,0.65089 -2.0884,1.34214 -3.1037,2.07326 -0.5929,0.42692 -1.5369,1.14255 -2.1079,1.59835 -0.988,0.78868 -1.9545,1.6175 -2.8975,2.48667 -0.943,0.86917 -1.8476,1.7656 -2.714,2.68614 -0.5008,0.53202 -1.2916,1.41423 -1.7653,1.97042 -0.8113,0.9525 -1.5839,1.928 -2.3182,2.92437 -0.7283,0.98812 -1.4189,1.99665 -2.0712,3.02359 -0.3917,0.61672 -1.0018,1.63253 -1.3622,2.26808 -0.5962,1.0515 -1.1541,2.11985 -1.6738,3.20291 -0.5172,1.07778 -0.9965,2.1704 -1.4376,3.27525 -0.271,0.67852 -0.6826,1.78929 -0.9194,2.48047 -0.3842,1.12165 -0.7305,2.2542 -1.0381,3.39566 -0.307,1.13899 -0.5757,2.28658 -0.8062,3.44113 -0.143,0.71647 -0.3458,1.88388 -0.4532,2.60656 -0.1728,1.16332 -0.3074,2.33195 -0.4031,3.50366 -0.096,1.17174 -0.1523,2.34681 -0.1705,3.52278 -0.011,0.73052 -6e-4,1.91514 0.024,2.64532 0.04,1.17663 0.1195,2.35276 0.2377,3.5264 0.1185,1.17625 0.2761,2.35004 0.4734,3.51916 0.1215,0.72043 0.3481,1.88327 0.5054,2.59674 0.2561,1.16176 0.5517,2.31751 0.8872,3.46491 0.3372,1.153 0.7145,2.29752 1.1323,3.43183 0.2525,0.68558 0.6896,1.78668 0.9761,2.45877 0.4771,1.11911 0.995,2.2266 1.5534,3.31969 0.5631,1.10224 1.1678,2.18983 1.8139,3.2613 0.3773,0.62566 1.0138,1.6252 1.4216,2.23139 0.4624,0.68728 0.9428,1.36643 1.4412,2.0376 0.4356,0.58657 1.3938,1.05265 2.1245,1.05265 h 39.2616 2.6459 39.2617 c 0.7306,0 1.6888,-0.46608 2.1244,-1.05265 0.4984,-0.67116 0.9788,-1.35033 1.4412,-2.0376 0.4079,-0.60618 1.0444,-1.60573 1.4217,-2.23139 0.6461,-1.07146 1.2507,-2.15907 1.8138,-3.2613 0.5584,-1.09311 1.0763,-2.20054 1.5534,-3.31969 0.2865,-0.6721 0.7236,-1.77319 0.9762,-2.45877 0.4177,-1.13427 0.795,-2.27887 1.1322,-3.43183 0.3356,-1.14741 0.6311,-2.30314 0.8873,-3.46491 0.1573,-0.71347 0.3838,-1.87631 0.5054,-2.59674 0.1972,-1.16915 0.3548,-2.34294 0.4733,-3.51916 0.1183,-1.17366 0.1976,-2.34975 0.2377,-3.5264 0.025,-0.73018 0.036,-1.91531 0.024,-2.64583 -0.018,-1.17596 -0.075,-2.35058 -0.1705,-3.52227 -0.096,-1.1717 -0.2303,-2.34032 -0.4031,-3.50366 -0.1073,-0.72268 -0.3102,-1.89008 -0.4532,-2.60656 -0.2304,-1.15456 -0.4991,-2.30217 -0.8061,-3.44113 -0.3077,-1.14144 -0.6539,-2.274 -1.0382,-3.39566 -0.2368,-0.69117 -0.6484,-1.80195 -0.9193,-2.48047 -0.4412,-1.10484 -0.9204,-2.19745 -1.4377,-3.27525 -0.5197,-1.08304 -1.0781,-2.1514 -1.6743,-3.20291 -0.3603,-0.63556 -0.97,-1.65135 -1.3617,-2.26808 -0.6523,-1.02698 -1.3429,-2.03552 -2.0712,-3.02359 -0.7343,-0.99634 -1.5069,-1.97191 -2.3182,-2.92437 -0.4737,-0.55619 -1.2645,-1.4384 -1.7652,-1.97042 -0.8665,-0.92056 -1.7711,-1.81645 -2.7141,-2.68562 -0.943,-0.86917 -1.9095,-1.69852 -2.8975,-2.48719 -0.571,-0.4558 -1.515,-1.17142 -2.1079,-1.59835 C 83.2026,11.90461 82.167,11.21336 81.1143,10.56249 80.0702,9.91701 79.0092,9.31108 77.9325,8.74451 77.286,8.40427 76.2239,7.87891 75.5611,7.57146 74.4646,7.06278 73.3543,6.59366 72.2326,6.16379 71.1163,5.73597 69.9885,5.34675 68.8514,4.99694 68.1531,4.78211 67.0125,4.46254 66.3043,4.28277 65.1551,3.99104 63.998,3.73796 62.8353,3.52416 61.6751,3.31082 60.5093,3.13641 59.3399,3.00068 58.6141,2.91648 57.4344,2.8091 56.7054,2.7609 55.5318,2.6833 54.3561,2.6446 53.1806,2.64463 Z m 0,0.52917 c 3.0071,2e-5 6.0144,0.25667 8.9865,0.76997 2.9722,0.51329 5.9091,1.28282 8.7762,2.30942 2.867,1.0265 5.6642,2.30955 8.3561,3.84938 0.673,0.38494 1.339,0.78601 1.9983,1.20303 0.6597,0.41721 1.3121,0.85086 1.957,1.30018 1.2886,0.89797 2.5468,1.85994 3.7698,2.88613 l 5e-4,5.1e-4 c 1.2232,1.02638 2.3892,2.0983 3.4975,3.21169 1.1084,1.11349 2.1592,2.26844 3.1512,3.46026 1.9838,2.38364 3.7334,4.91506 5.2421,7.56026 1.5088,2.64523 2.7766,5.40405 3.7982,8.24187 1.0216,2.83791 1.7965,5.7548 2.3187,8.71627 0.5222,2.96147 0.7919,5.96736 0.8025,8.98343 0.011,3.01606 -0.2377,6.04219 -0.7508,9.04389 -10e-5,5.3e-4 -5e-4,0.001 -5e-4,0.002 -0.1283,0.75028 -0.2732,1.49918 -0.4346,2.24586 -1.1301,5.22781 -3.0762,10.35449 -5.8705,15.19442 L 98.5138,82.61022 76.7519,70.0466 A 9.8748087,9.8748087 0 0 0 71.8147,68.72373 H 34.5476 a 9.8743461,9.8743461 0 0 0 -4.9372,1.32292 L 7.848,82.61126 7.5834,82.15289 C 7.1842,81.46133 6.802,80.76323 6.4372,80.06051 5.7867,78.80722 5.1995,77.53487 4.658,76.25092 4.5457,75.98462 4.4339,75.71843 4.3263,75.45097 4.08,74.83902 3.8392,74.22574 3.6173,73.60819 2.5683,70.68985 1.7905,67.71235 1.2774,64.71054 0.7643,61.70881 0.5159,58.68275 0.5265,55.66665 c 0.011,-3.0161 0.2803,-6.02189 0.8025,-8.98343 0.5222,-2.96146 1.2972,-5.87839 2.3188,-8.71627 1.0216,-2.83779 2.2895,-5.59659 3.7982,-8.24187 0.7544,-1.3226 1.5693,-2.6168 2.4432,-3.87832 2.6217,-3.78526 5.778,-7.27588 9.448,-10.35544 4.893,-4.10566 10.3468,-7.18508 16.0812,-9.23768 2.867,-1.02654 5.804,-1.79619 8.7762,-2.30942 2.972,-0.51332 5.9794,-0.76991 8.9866,-0.76997 z"
       style="font-variation-settings:'wdth' 87, 'wght' 400;fill:#323233;fill-opacity:1;stroke-width:1.05833;stroke-miterlimit:5;paint-order:stroke fill markers"
       id="path44" /><path
       style="font-variation-settings:'wdth' 87, 'wght' 400;fill:#323233;fill-opacity:1;stroke:none;stroke-width:0.264583;stroke-linecap:round;stroke-miterlimit:5;stroke-dasharray:none;paint-order:stroke fill markers"
       d="m 89.066,13.0609 c 2.8958,2.6074 3.649,7.1935 8.2049,13.0114 -6.8347,-5.2752 -7.6241,-8.1528 -10.926,-11.8194 0.567,-0.6757 1.7076,-1.1754 2.7211,-1.192 z"
       id="path111" /><path
       style="font-variation-settings:'wdth' 87, 'wght' 400;fill:#323233;fill-opacity:1;stroke:none;stroke-width:0.264583;stroke-linecap:round;stroke-miterlimit:5;stroke-dasharray:none;paint-order:stroke fill markers"
       d="m 17.2961,13.0609 c -2.8958,2.6074 -3.649,7.1935 -8.2049,13.0114 6.8347,-5.2752 7.6241,-8.1528 10.926,-11.8194 -0.567,-0.6757 -1.7076,-1.1754 -2.7211,-1.192 z"
       id="path114" /><path
       d="m 53.181285,-2.9860667e-4 c -3.1885,0 -6.3772,0.27229999667 -9.5286,0.81649999667 -3.1513,0.54420001 -6.2654,1.36050001 -9.3054,2.44890001 -3.0399,1.0884 -6.0057,2.4488 -8.8599,4.0814 -2.8542,1.6326 -5.5969,3.5375996 -8.1912,5.7143996 l 2.0407,2.4319 c 2.4467,-2.053 5.0336,-3.8497 7.7256,-5.3894 2.6919,-1.5397996 5.4891,-2.8227996 8.3561,-3.8492996 2.867,-1.0265 5.804,-1.7961 8.7762,-2.3094 2.9721,-0.5132 5.9793,-0.77 8.9865,-0.77 3.0072,0 6.0145,0.2568 8.9866,0.77 2.9722,0.5133 5.9092,1.2829 8.7762,2.3094 2.867,1.0265 5.6636,2.3095 8.3555,3.8492996 2.692,1.5397 5.279,3.3364 7.7257,5.3894 l 2.0407,-2.4319 c -2.5943,-2.1768 -5.3371,-4.0817996 -8.1913,-5.7143996 -2.8542,-1.6326 -5.82,-2.993 -8.8599,-4.0814 -3.04,-1.0884 -6.1541,-1.9047 -9.3054,-2.44890001 -3.1514,-0.5442 -6.3397,-0.81649999667 -9.5281,-0.81649999667 z"
       style="font-variation-settings:'wdth' 87, 'wght' 400;display:inline;fill:#323233;fill-opacity:1;stroke:#b3b3b3;stroke-width:0;stroke-miterlimit:5;paint-order:stroke fill markers"
       id="path115" /></g><g
     id="g1"
     style="opacity:1"
     inkscape:label="Fancy Line"><path
       d="M 57.2789,68.9937 V 68.7239 H 34.5475 c -1.7333,0 -3.4361,0.4563 -4.9372,1.3229 l -16.2455,9.3793 -2.7451,1.5849 -0.232,0.1339 -0.9286,0.5364 -1.6108,0.9301 -0.097,0.3664 1.8397,-1.0624 0.9301,-0.537 0.2305,-0.1328 2.7461,-1.5859 16.246,-9.3788 c 1.4608,-0.8434 3.1176,-1.2872 4.8044,-1.2872 z"
       style="opacity:1;fill:url(#linearGradient678);stroke-linecap:round;stroke-miterlimit:5;paint-order:stroke fill markers"
       id="path535" /><path
       d="m 49.0833,68.9937 v -0.2698 h 22.7314 c 1.7333,0 3.4361,0.4563 4.9372,1.3229 l 16.2455,9.3793 2.7451,1.5849 0.232,0.1339 0.9286,0.5364 1.6108,0.9301 0.097,0.3664 -1.8397,-1.0624 -0.9301,-0.537 -0.2305,-0.1328 -2.7461,-1.5859 -16.246,-9.3788 c -1.4608,-0.8434 -3.1176,-1.2872 -4.8044,-1.2872 z"
       style="opacity:1;fill:url(#linearGradient679);stroke-linecap:round;stroke-miterlimit:5;paint-order:stroke fill markers"
       id="path536" /></g><path
     d="m 64.89667,14.023 -0.49834,0.49834 -2.42979,2.42979 a 0.17621344,0.17621344 0 0 0 0,0.24921 l 0.37373,0.37374 a 0.17621156,0.17621156 0 0 0 0.2492,0 l 2.3052,-2.3052 a 0.08810625,0.08810625 0 0 1 0.1246,0 l 2.3052,2.3052 a 0.17621156,0.17621156 0 0 0 0.2492,0 l 0.37373,-0.37374 a 0.17621344,0.17621344 0 0 0 0,-0.24921 L 65.6442,14.64594 65.02127,14.023 a 0.08810625,0.08810625 0 0 0 -0.1246,0 z"
     style="font-variation-settings:'wdth' 75, 'wght' 300;fill:#ff0033;stroke-width:0.0176212;stroke-miterlimit:5;paint-order:stroke fill markers"
     id="use845"
     inkscape:label="Shift Up Arrow" /><path
     style="font-variation-settings:'wdth' 87, 'wght' 400;display:inline;fill:#ffffff;fill-opacity:1;stroke:#ffffff;stroke-width:0.529166;stroke-linecap:round;stroke-miterlimit:5;stroke-dasharray:none;stroke-opacity:1;paint-order:stroke fill markers"
     d="M 53.18127,8.7315566 V 7.1441334"
     id="path184-5"
     inkscape:label="Steer Center" /></svg>
