<?xml version="1.0" encoding="UTF-8" standalone="no"?>
<!-- Created with Inkscape (http://www.inkscape.org/) -->

<svg
   width="401.99854"
   height="334.74341"
   viewBox="0 0 106.36211 88.567527"
   version="1.1"
   id="svg1"
   xml:space="preserve"
   sodipodi:docname="Shift-Lights.svg"
   inkscape:version="1.4 (86a8ad7, 2024-10-11)"
   xmlns:inkscape="http://www.inkscape.org/namespaces/inkscape"
   xmlns:sodipodi="http://sodipodi.sourceforge.net/DTD/sodipodi-0.dtd"
   xmlns="http://www.w3.org/2000/svg"
   xmlns:svg="http://www.w3.org/2000/svg"><sodipodi:namedview
     id="namedview1"
     pagecolor="#505050"
     bordercolor="#ffffff"
     borderopacity="1"
     inkscape:showpageshadow="0"
     inkscape:pageopacity="0"
     inkscape:pagecheckerboard="1"
     inkscape:deskcolor="#505050"
     inkscape:zoom="1.1966658"
     inkscape:cx="50.139312"
     inkscape:cy="222.70211"
     inkscape:window-width="2560"
     inkscape:window-height="1351"
     inkscape:window-x="-9"
     inkscape:window-y="-9"
     inkscape:window-maximized="1"
     inkscape:current-layer="svg1" /><defs
     id="defs1" /><path
     id="path653"
     style="font-variation-settings:'wdth' 87, 'wght' 400;baseline-shift:baseline;display:inline;overflow:visible;vector-effect:none;fill:#ff0033;fill-opacity:1;stroke-miterlimit:5;paint-order:stroke fill markers;enable-background:accumulate;stop-color:#000000"
     d="m 76.1674,6.1573 c -0.2036,-0.01 -0.4009,0.1061 -0.4919,0.3069 -0.1214,0.2658 4e-4,0.579 0.2609,0.7028 v 0 c 4.0731,1.9048 7.8893,4.316 11.3621,7.1722 0.2257,0.1856 0.5595,0.1564 0.7473,-0.067 0.1875,-0.2236 0.1564,-0.5548 -0.069,-0.741 C 87.3969,13.0516 86.2248,12.1037 84.623,10.984 84.527,10.917 84.4313,10.8484 84.3347,10.7815 83.0645,9.9028 81.7575,9.0781 80.4176,8.3098 80.3186,8.2528 80.2183,8.198 80.1189,8.1418 78.4182,7.1776 77.0519,6.5246 76.3693,6.2065 76.3033,6.1755 76.2351,6.1595 76.1672,6.1575 Z"
     inkscape:label="5" /><path
     d="M 65.8064,2.5355 C 64.4812,2.2194 63.1448,1.9529 61.7998,1.7364 61.5113,1.6904 61.242,1.8892 61.1987,2.1782 v 3e-4 c -0.043,0.289 0.1561,0.5581 0.4447,0.6041 4.2853,0.6838 8.472,1.8843 12.4684,3.5755 0.2691,0.1139 0.5808,-0.01 0.6973,-0.2767 l 2e-4,-4e-4 C 74.9258,5.813 74.7993,5.5013 74.5337,5.3878 73.277,4.8579 72.0008,4.3751 70.7079,3.9405 70.6189,3.9105 70.53,3.8795 70.4408,3.8495 69.0081,3.3737 67.5562,2.9573 66.0891,2.6015 65.9951,2.5785 65.9006,2.5575 65.8064,2.5355 Z"
     style="font-variation-settings:'wdth' 87, 'wght' 400;baseline-shift:baseline;display:inline;overflow:visible;vector-effect:none;fill:#ff0033;fill-opacity:1;stroke-miterlimit:5;paint-order:stroke fill markers;enable-background:accumulate;stop-color:#000000"
     id="path629"
     inkscape:label="4" /><path
     d="m 55.4567,1.1056 c -1.5162,-0.063 -3.0345,-0.063 -4.5507,0 -0.086,0 -0.1726,0.01 -0.2589,0.013 -1.3669,0.061 -2.7309,0.1741 -4.0891,0.3378 -0.2902,0.035 -0.4942,0.3007 -0.4561,0.5904 0.038,0.2896 0.3039,0.4932 0.594,0.4579 4.3078,-0.5239 8.6631,-0.5239 12.9709,0 0.2901,0.035 0.556,-0.1684 0.5943,-0.4581 C 60.2991,1.757 60.0954,1.4913 59.8052,1.4564 58.4468,1.2927 57.0826,1.1801 55.7156,1.1186 c -0.086,0 -0.1726,-0.01 -0.2589,-0.013 z"
     style="font-variation-settings:'wdth' 87, 'wght' 400;baseline-shift:baseline;display:inline;overflow:visible;vector-effect:none;fill:#ff0033;fill-opacity:1;stroke-miterlimit:5;paint-order:stroke fill markers;enable-background:accumulate;stop-color:#000000"
     id="path656"
     inkscape:label="3" /><path
     d="m 32.2509,6.3581 c 3.9965,-1.6912 8.1832,-2.8917 12.4684,-3.5755 0.2886,-0.046 0.4881,-0.3151 0.445,-0.6042 l -10e-5,-10e-5 C 45.1212,1.8892 44.8519,1.69 44.5634,1.7365 43.2228,1.9524 41.8906,2.218 40.5697,2.5329 c -0.1019,0.024 -0.2042,0.047 -0.3059,0.071 -1.4594,0.3544 -2.9036,0.7687 -4.3289,1.2418 -0.099,0.033 -0.1974,0.067 -0.2962,0.1007 -1.2874,0.433 -2.5581,0.9137 -3.8097,1.4412 -0.2693,0.1134 -0.3922,0.4251 -0.2757,0.6931 l 4e-4,7e-4 c 0.1165,0.268 0.4281,0.3906 0.6972,0.2767 z"
     style="font-variation-settings:'wdth' 87, 'wght' 400;baseline-shift:baseline;display:inline;overflow:visible;vector-effect:none;fill:#ff0033;fill-opacity:1;stroke-miterlimit:5;paint-order:stroke fill markers;enable-background:accumulate;stop-color:#000000"
     id="path654"
     inkscape:label="2" /><path
     d="m 21.7724,10.9634 c -1.1622,0.8112 -2.2924,1.6673 -3.3881,2.5661 -0.226,0.1854 -0.2553,0.5191 -0.068,0.743 0.1878,0.2239 0.5213,0.2529 0.747,0.067 3.473,-2.8563 7.2909,-5.2651 11.3641,-7.1699 0.2647,-0.1238 0.3822,-0.4374 0.2611,-0.7034 h -10e-5 C 30.5673,6.2002 30.2535,6.0829 29.9889,6.207 c -1.287,0.6037 -2.55,1.2573 -3.7863,1.9593 -0.075,0.043 -0.1508,0.084 -0.2258,0.1272 -1.3604,0.7787 -2.6868,1.6154 -3.9754,2.5078 -0.077,0.053 -0.1528,0.1081 -0.2295,0.1618 z"
     style="font-variation-settings:'wdth' 87, 'wght' 400;baseline-shift:baseline;display:inline;overflow:visible;vector-effect:none;fill:#ff0033;fill-opacity:1;stroke-miterlimit:5;paint-order:stroke fill markers;enable-background:accumulate;stop-color:#000000"
     id="path655"
     inkscape:label="1" /></svg>
